<?xml version="1.0" standalone="no"?>
<!DOCTYPE svg PUBLIC "-//W3C//DTD SVG 20010904//EN"
 "http://www.w3.org/TR/2001/REC-SVG-20010904/DTD/svg10.dtd">
<svg version="1.0" xmlns="http://www.w3.org/2000/svg"
 width="642.000000pt" height="584.000000pt" viewBox="0 0 642.000000 584.000000"
 preserveAspectRatio="xMidYMid meet">
<metadata>
Created by potrace 1.16, written by Peter Selinger 2001-2019
</metadata>
<g transform="translate(0.000000,584.000000) scale(0.100000,-0.100000)"
fill="#2a94f2" stroke="none">
<path d="M4277 5813 c-4 -3 -7 -18 -7 -32 0 -14 -4 -31 -8 -38 -5 -9 -159 -13
-607 -15 l-600 -4 -90 -27 c-357 -110 -610 -406 -661 -772 -3 -27 -11 -56 -16
-62 -8 -10 -62 -13 -207 -13 -140 0 -200 -3 -209 -12 -16 -16 -15 -65 1 -75 6
-4 104 -10 217 -13 l205 -5 12 -82 c46 -302 234 -553 519 -696 206 -104 506
-114 733 -27 161 62 345 213 441 361 42 65 95 185 117 264 23 87 34 238 23
343 -12 116 -59 259 -120 365 -55 97 -178 230 -269 291 -39 26 -69 52 -66 57
4 5 124 9 284 9 301 0 296 1 303 -55 5 -44 28 -41 148 18 97 48 105 54 108 83
4 38 -15 53 -135 107 -83 37 -104 43 -116 30z m-899 -198 c252 -53 468 -217
577 -440 65 -131 87 -224 87 -370 0 -144 -20 -232 -85 -369 -94 -195 -275
-349 -495 -422 -135 -44 -352 -44 -489 2 -212 70 -397 231 -493 429 -37 76
-80 227 -80 281 l0 24 273 -2 272 -3 5 -34 c9 -58 24 -58 145 1 109 53 110 53
113 91 l3 38 -105 50 c-121 58 -149 60 -154 12 -2 -17 -9 -36 -16 -42 -9 -8
-96 -10 -272 -9 l-259 3 -3 26 c-4 31 27 160 58 242 36 96 147 245 237 318
102 82 253 152 383 178 72 14 223 12 298 -4z"/>
<path d="M373 3246 c-125 -29 -252 -123 -292 -217 -67 -154 -41 -310 69 -420
67 -67 112 -92 279 -158 221 -86 284 -142 267 -235 -7 -39 -57 -89 -108 -110
-92 -39 -245 -1 -391 97 -17 11 -28 2 -103 -77 -46 -50 -84 -92 -84 -96 0 -7
117 -84 165 -108 102 -50 286 -77 416 -61 181 23 324 140 365 299 20 80 6 179
-37 261 -57 105 -123 151 -364 249 -123 51 -168 74 -202 106 -39 37 -43 45
-43 90 0 99 67 153 191 154 82 0 149 -20 207 -61 l44 -32 86 87 c86 85 87 86
67 105 -36 35 -138 91 -205 112 -86 27 -244 34 -327 15z"/>
<path d="M1160 2555 l0 -675 125 0 125 0 0 449 c0 248 4 452 8 455 4 3 23 -23
42 -57 34 -63 136 -245 283 -504 45 -79 84 -143 87 -143 4 0 28 37 55 83 26
45 121 204 209 352 l161 270 3 -452 2 -453 125 0 125 0 0 675 0 675 -140 0
-139 0 -27 -47 c-26 -46 -84 -145 -279 -476 -48 -81 -90 -145 -95 -142 -5 3
-48 76 -96 163 -139 249 -230 414 -255 459 l-24 43 -147 0 -148 0 0 -675z"/>
<path d="M3284 3208 c-4 -13 -31 -75 -62 -138 -30 -63 -89 -189 -132 -280 -43
-91 -119 -253 -170 -360 -51 -107 -130 -275 -175 -372 l-83 -178 139 0 140 0
19 45 c11 25 38 86 61 135 l42 90 336 -2 c331 -3 336 -3 346 -24 5 -12 33 -72
60 -133 l50 -111 138 0 c75 0 137 2 137 4 0 4 -83 182 -250 536 -64 137 -133
281 -373 788 -10 21 -16 22 -113 22 -98 0 -103 -1 -110 -22z m149 -415 c14
-32 62 -135 106 -230 45 -95 81 -179 81 -188 0 -13 -29 -15 -225 -15 -173 0
-225 3 -225 13 0 6 33 82 74 167 41 85 90 190 109 233 20 42 40 77 45 77 5 0
21 -26 35 -57z"/>
<path d="M4290 2556 l0 -676 125 0 125 0 0 271 0 271 93 -4 c132 -6 201 -48
256 -156 20 -40 121 -347 121 -369 0 -10 31 -13 141 -13 131 0 141 1 134 18
-4 9 -40 105 -80 213 -85 231 -116 291 -167 327 -21 15 -46 32 -56 39 -15 10
-13 14 21 28 84 35 172 143 202 249 49 169 -44 359 -215 440 l-65 31 -317 3
-318 3 0 -675z m523 473 c46 -13 109 -67 131 -113 9 -19 16 -60 16 -93 0 -76
-37 -139 -107 -180 -45 -26 -56 -28 -180 -31 l-133 -4 0 216 0 216 118 0 c64
0 134 -5 155 -11z"/>
<path d="M5382 3118 l3 -113 188 -3 187 -2 0 -560 0 -560 130 0 130 0 0 560 0
560 185 0 185 0 0 115 0 115 -505 0 -506 0 3 -112z"/>
<path d="M640 680 l0 -670 125 0 125 0 0 204 c0 112 3 211 6 220 5 14 28 16
146 16 156 0 234 15 308 57 165 96 238 232 228 427 -6 118 -40 196 -119 277
-123 126 -175 139 -541 139 l-278 0 0 -670z m536 461 c64 -29 101 -64 130
-126 50 -105 22 -231 -69 -312 -61 -52 -108 -65 -237 -61 l-105 3 -3 249 c-2
187 1 252 10 264 20 23 208 12 274 -17z"/>
<path d="M1752 913 c4 -428 4 -440 27 -508 59 -176 157 -295 299 -363 l77 -37
195 0 196 0 78 38 c166 83 284 252 315 454 7 44 11 226 11 462 l0 391 -130 0
-130 0 0 -407 c0 -439 -3 -471 -53 -556 -35 -58 -83 -102 -142 -129 -72 -32
-218 -32 -290 0 -98 45 -172 146 -194 267 -7 36 -11 208 -11 442 l0 383 -126
0 -125 0 3 -437z"/>
<path d="M3180 680 l0 -670 125 0 125 0 2 452 3 453 86 -150 c47 -82 128 -224
179 -315 51 -91 104 -185 117 -208 14 -24 28 -40 32 -35 4 4 47 76 96 158 48
83 120 204 160 270 39 66 91 153 114 193 23 39 46 72 51 72 6 0 10 -169 10
-445 l0 -445 125 0 125 0 0 670 0 670 -143 0 -143 0 -110 -187 c-60 -102 -146
-249 -190 -327 -45 -77 -86 -142 -92 -144 -5 -1 -54 75 -107 170 -111 195
-237 419 -259 461 l-15 27 -146 0 -145 0 0 -670z"/>
<path d="M4790 680 l0 -670 130 0 130 0 0 220 0 220 144 0 c118 0 156 4 212
21 132 41 221 117 282 239 36 73 37 77 37 190 0 114 -1 117 -38 192 -65 133
-178 224 -310 249 -27 5 -171 9 -318 9 l-269 0 0 -670z m524 466 c102 -43 156
-118 164 -225 3 -53 0 -77 -15 -112 -28 -63 -76 -113 -135 -143 -47 -23 -64
-26 -165 -26 l-113 0 0 266 0 267 113 -5 c71 -4 126 -11 151 -22z"/>
</g>
</svg>
